# xmcd CD database file
#
# Track frame offsets:
#	183
#	7020
#	30660
#	46500
#	51475
#	70578
#	94140
#	112498
#	132823
#	155365
#	175895
#	191088
#
# Disc length: 2858 seconds
#
# Revision: 0
# Processed by: cddbd v1.5.1PL2 Copyright (c) Steve Scherf et al.
# Submitted via: CDex 1.70beta2
#
DISCID=a10b280c
DTITLE=Third Xperience - [in an] ambient mood
DYEAR=1997
DGENRE=New Age
TTITLE0=calibration tool
TTITLE1=boldibanda
TTITLE2=foolled
TTITLE3=advertising
TTITLE4=antartica
TTITLE5=rapman
TTITLE6=arry
TTITLE7=buddah of compassion
TTITLE8=zen garden
TTITLE9=libertad
TTITLE10=end (of the experience)
TTITLE11=(bonus)
EXTD=YEAR: 1997
EXTT0=
EXTT1=
EXTT2=
EXTT3=
EXTT4=
EXTT5=
EXTT6=
EXTT7=
EXTT8=
EXTT9=
EXTT10=
EXTT11=
PLAYORDER=
